<svg width="44" height="30" viewBox="0 0 44 30" fill="none" xmlns="http://www.w3.org/2000/svg">
<path d="M26 10.4945V8.26562C27.1 7.83222 28.225 7.50716 29.375 7.29046C30.525 7.07376 31.7333 6.96541 33 6.96541C33.8667 6.96541 34.7167 7.02732 35.55 7.15115C36.3833 7.27498 37.2 7.42977 38 7.61551V9.6587C37.2 9.38008 36.3917 9.17112 35.575 9.03181C34.7583 8.89251 33.9 8.82285 33 8.82285C31.7333 8.82285 30.5167 8.9699 29.35 9.26399C28.1833 9.55809 27.0667 9.96827 26 10.4945ZM26 20.7105V18.4351C27.1 18.0172 28.225 17.7037 29.375 17.4948C30.525 17.2858 31.7333 17.1813 33 17.1813C33.8667 17.1813 34.7167 17.2433 35.55 17.3671C36.3833 17.4909 37.2 17.6457 38 17.8314V19.8746C37.2 19.596 36.3917 19.3871 35.575 19.2477C34.7583 19.1084 33.9 19.0388 33 19.0388C31.7333 19.0388 30.5167 19.1781 29.35 19.4567C28.1833 19.7353 27.0667 20.1533 26 20.7105ZM26 15.6025V13.3736C27.1 12.9402 28.225 12.6151 29.375 12.3984C30.525 12.1817 31.7333 12.0734 33 12.0734C33.8667 12.0734 34.7167 12.1353 35.55 12.2591C36.3833 12.3829 37.2 12.5377 38 12.7235V14.7667C37.2 14.4881 36.3917 14.2791 35.575 14.1398C34.7583 14.0005 33.9 13.9308 33 13.9308C31.7333 13.9308 30.5167 14.0779 29.35 14.372C28.1833 14.6661 27.0667 15.0762 26 15.6025ZM10.4 23.218C12.1855 23.218 13.9236 23.4115 15.6142 23.7985C17.3047 24.1854 18.9667 24.7659 20.6 25.5398V5.71164C19.1 4.78291 17.473 4.06316 15.7191 3.55236C13.9651 3.04156 12.1921 2.78616 10.4 2.78616C9.13333 2.78616 7.89167 2.93321 6.675 3.22731C5.45833 3.5214 4.23333 3.88515 3 4.31855V24.4718C4.03333 24.0384 5.20833 23.7211 6.525 23.5199C7.84167 23.3186 9.13333 23.218 10.4 23.218ZM23.6 25.5398C25.2667 24.7659 26.9 24.1854 28.5 23.7985C30.1 23.4115 31.8 23.218 33.6 23.218C34.8667 23.218 36.175 23.3109 37.525 23.4966C38.875 23.6824 40.0333 23.93 41 24.2396V4.31855C39.8667 3.79228 38.6696 3.40531 37.4089 3.15765C36.1481 2.90999 34.8785 2.78616 33.6 2.78616C31.8 2.78616 30.0583 3.04156 28.375 3.55236C26.6917 4.06316 25.1 4.78291 23.6 5.71164V25.5398ZM22.1 29.7191C20.4 28.5427 18.55 27.6372 16.55 27.0026C14.55 26.3679 12.5 26.0506 10.4 26.0506C9.1821 26.0506 7.98597 26.1899 6.8116 26.4686C5.6372 26.7472 4.46667 27.0877 3.3 27.4901C2.53 27.8307 1.7875 27.7842 1.0725 27.3508C0.3575 26.9174 0 26.2983 0 25.4934V3.9935C0 3.52914 0.116667 3.10348 0.35 2.71651C0.583333 2.32954 0.933333 2.02771 1.4 1.81101C2.8 1.19186 4.25658 0.735238 5.76975 0.441143C7.28288 0.147047 8.8263 0 10.4 0C12.5 0 14.5417 0.263138 16.525 0.789413C18.5083 1.31569 20.3667 2.12058 22.1 3.20409C23.8 2.12058 25.625 1.31569 27.575 0.789413C29.525 0.263138 31.5333 0 33.6 0C35.1623 0 36.6945 0.147047 38.1967 0.441143C39.6989 0.735238 41.15 1.19186 42.55 1.81101C43.0167 2.02771 43.375 2.32954 43.625 2.71651C43.875 3.10348 44 3.52914 44 3.9935V25.4934C44 26.3569 43.625 27.0139 42.875 27.4645C42.125 27.915 41.3833 27.9236 40.65 27.4901C39.5167 27.0567 38.3628 26.7085 37.1884 26.4453C36.014 26.1822 34.8179 26.0506 33.6 26.0506C31.5 26.0506 29.4833 26.3757 27.55 27.0258C25.6167 27.6759 23.8 28.5737 22.1 29.7191Z" fill="#149ECA"/>
</svg>
