<svg width="163" height="53" viewBox="0 0 163 53" fill="none"
    xmlns="http://www.w3.org/2000/svg">
    <rect x="0.547852" y="0.462433" width="161.586" height="52.1387" rx="20" fill="#9a4f96"/>
    <path d="M56.4494 33.7141C56.4494 33.2661 56.5574 32.8541 56.7734 32.4781C56.9974 32.1021 57.2974 31.8021 57.6734 31.5781C58.0494 31.3541 58.4654 31.2421 58.9214 31.2421C59.3854 31.2421 59.8054 31.3541 60.1814 31.5781C60.5574 31.8021 60.8534 32.1021 61.0694 32.4781C61.2934 32.8541 61.4054 33.2661 61.4054 33.7141C61.4054 34.1621 61.2934 34.5781 61.0694 34.9621C60.8534 35.3381 60.5574 35.6381 60.1814 35.8621C59.8054 36.0861 59.3854 36.1981 58.9214 36.1981C58.4654 36.1981 58.0494 36.0861 57.6734 35.8621C57.2974 35.6381 56.9974 35.3381 56.7734 34.9621C56.5574 34.5781 56.4494 34.1621 56.4494 33.7141ZM74.884 35.8381L70 22.0501C70.04 22.3541 70.088 22.7461 70.144 23.2261C70.2 23.7061 70.252 24.2501 70.3 24.8581C70.356 25.4661 70.4 26.1101 70.432 26.7901C70.472 27.4701 70.492 28.1581 70.492 28.8541V35.8381H67.636V19.2421H71.812L76.648 33.0061C76.584 32.5981 76.512 32.0581 76.432 31.3861C76.36 30.7141 76.296 29.9421 76.24 29.0701C76.184 28.1981 76.156 27.2701 76.156 26.2861V19.2421H79.012V35.8381H74.884ZM85.1466 30.4501C85.2106 31.2421 85.3906 31.8861 85.6866 32.3821C85.9906 32.8781 86.3786 33.2421 86.8506 33.4741C87.3226 33.7061 87.8466 33.8221 88.4226 33.8221C89.0306 33.8221 89.6026 33.7261 90.1386 33.5341C90.6746 33.3421 91.2026 33.0741 91.7226 32.7301L93.0426 34.5421C92.4506 35.0381 91.7426 35.4381 90.9186 35.7421C90.1026 36.0461 89.2026 36.1981 88.2186 36.1981C86.8426 36.1981 85.6826 35.9141 84.7386 35.3461C83.8026 34.7781 83.0946 33.9901 82.6146 32.9821C82.1346 31.9741 81.8946 30.8141 81.8946 29.5021C81.8946 28.2381 82.1306 27.0981 82.6026 26.0821C83.0746 25.0661 83.7546 24.2621 84.6426 23.6701C85.5306 23.0701 86.6026 22.7701 87.8586 22.7701C89.0266 22.7701 90.0346 23.0261 90.8826 23.5381C91.7306 24.0501 92.3866 24.7861 92.8506 25.7461C93.3146 26.6981 93.5466 27.8461 93.5466 29.1901C93.5466 29.4061 93.5386 29.6261 93.5226 29.8501C93.5146 30.0741 93.5026 30.2741 93.4866 30.4501H85.1466ZM87.8706 25.0021C87.1026 25.0021 86.4706 25.2781 85.9746 25.8301C85.4866 26.3741 85.1986 27.2381 85.1106 28.4221H90.4626C90.4466 27.3501 90.2226 26.5141 89.7906 25.9141C89.3666 25.3061 88.7266 25.0021 87.8706 25.0021ZM107.805 35.1301C107.333 35.4421 106.761 35.6981 106.089 35.8981C105.417 36.0981 104.689 36.1981 103.905 36.1981C102.353 36.1981 101.185 35.7981 100.401 34.9981C99.6173 34.1901 99.2253 33.1181 99.2253 31.7821V25.3741H96.4653V23.1301H99.2253V20.3341L102.393 19.9501V23.1301H106.593L106.269 25.3741H102.393V31.7701C102.393 32.4261 102.553 32.9061 102.873 33.2101C103.193 33.5141 103.709 33.6661 104.421 33.6661C104.877 33.6661 105.293 33.6141 105.669 33.5101C106.053 33.3981 106.401 33.2581 106.713 33.0901L107.805 35.1301Z" fill="white"/>
</svg>
