<svg width="50" height="48" viewBox="0 0 50 48" fill="none" xmlns="http://www.w3.org/2000/svg">
<path d="M25 30C23.1268 30 21.3664 29.6588 19.7188 28.9763C18.0712 28.2938 16.6381 27.3675 15.4193 26.1975C14.2006 25.0275 13.2357 23.6517 12.5248 22.07C11.8138 20.4883 11.4584 18.7983 11.4584 17C11.4584 15.2017 11.8138 13.5117 12.5248 11.93C13.2357 10.3483 14.2006 8.9725 15.4193 7.8025C16.6381 6.6325 18.0712 5.70625 19.7188 5.02375C21.3664 4.34125 23.1268 4 25 4C26.8733 4 28.6337 4.34125 30.2813 5.02375C31.9289 5.70625 33.362 6.6325 34.5808 7.8025C35.7995 8.9725 36.7644 10.3483 37.4753 11.93C38.1862 13.5117 38.5417 15.2017 38.5417 17V18.7225C38.5417 19.9358 38.096 20.9596 37.2045 21.7938C36.313 22.6279 35.224 23.045 33.9375 23.045C33.125 23.045 32.3577 22.8554 31.6355 22.4763C30.9132 22.0971 30.3603 21.5608 29.9766 20.8675C29.3898 21.6042 28.6563 22.1513 27.7761 22.5088C26.8959 22.8663 25.9705 23.045 25 23.045C23.2396 23.045 21.7444 22.46 20.5144 21.29C19.2843 20.12 18.6693 18.69 18.6693 17C18.6693 15.31 19.2843 13.8692 20.5144 12.6775C21.7444 11.4858 23.2396 10.89 25 10.89C26.7605 10.89 28.2557 11.4858 29.4857 12.6775C30.7158 13.8692 31.3308 15.31 31.3308 17V18.7225C31.3308 19.3942 31.5847 19.9575 32.0925 20.4125C32.6003 20.8675 33.2153 21.095 33.9375 21.095C34.6372 21.095 35.2409 20.8675 35.7487 20.4125C36.2566 19.9575 36.5105 19.3942 36.5105 18.7225V17C36.5105 13.9233 35.3933 11.3125 33.1589 9.1675C30.9245 7.0225 28.2049 5.95 25 5.95C21.7952 5.95 19.0756 7.0225 16.8412 9.1675C14.6068 11.3125 13.4896 13.9233 13.4896 17C13.4896 20.0767 14.6068 22.6875 16.8412 24.8325C19.0756 26.9775 21.7952 28.05 25 28.05H31.2292C31.5226 28.05 31.7652 28.1421 31.9571 28.3263C32.1489 28.5104 32.2448 28.7433 32.2448 29.025C32.2448 29.3067 32.1489 29.5396 31.9571 29.7238C31.7652 29.9079 31.5226 30 31.2292 30H25ZM25 21.095C26.1962 21.095 27.2118 20.6996 28.0469 19.9088C28.882 19.1179 29.2995 18.1483 29.2995 17C29.2995 15.83 28.882 14.8442 28.0469 14.0425C27.2118 13.2408 26.1962 12.84 25 12.84C23.8039 12.84 22.7882 13.2408 21.9532 14.0425C21.1181 14.8442 20.7006 15.83 20.7006 17C20.7006 18.1483 21.1181 19.1179 21.9532 19.9088C22.7882 20.6996 23.8039 21.095 25 21.095Z" fill="#149ECA"/>
</svg>
