<svg width="35" height="37" viewBox="0 0 35 37" fill="none" xmlns="http://www.w3.org/2000/svg">
<path d="M12.5625 33.0506C12.5595 33.0495 12.556 33.0484 12.553 33.0474C12.5565 33.0484 12.5595 33.0495 12.5625 33.0506Z" fill="white"/>
<path d="M21.8751 32.7953V29.1727C21.8751 27.5927 20.8737 25.4953 19.5011 24.7489C24.4886 24.2107 26.8686 21.6224 26.8686 18.1091C26.8686 16.5979 26.2533 15.1376 25.2088 13.9068C25.5577 12.6846 25.9963 10.1773 25.0814 9.2251C22.8288 9.2251 21.4687 10.749 21.1466 11.1566C20.0239 10.7542 18.789 10.5276 17.494 10.5276C16.2018 10.5276 14.9713 10.7542 13.8513 11.1543C13.5248 10.7438 12.1664 9.2251 9.91872 9.2251C9.00763 10.1761 9.4413 12.673 9.78638 13.8975C8.73529 15.1312 8.11622 16.5956 8.11622 18.1091C8.11622 21.6247 10.5001 24.2147 15.4952 24.7501C14.629 25.2218 13.9202 26.2208 13.5101 27.306C12.7477 27.4308 11.9378 27.4638 11.3964 27.4638C10.2802 27.4638 9.99911 27.2788 9.40138 26.4619C8.80146 25.6467 8.1638 25.0969 7.3949 24.8703C6.97872 24.8246 6.70365 25.1623 7.06458 25.4577C8.28193 26.3463 8.36724 27.7985 8.85833 28.7484C9.3013 29.6028 10.214 30.0625 11.24 30.0625C11.4965 30.0625 12.5164 30.0625 13.1251 30.0625V32.801C13.1251 32.9456 15.3115 33.5636 17.499 33.5636C19.9889 33.5636 21.8751 32.8565 21.8751 32.7953Z" fill="#149ECA"/>
</svg>
