<svg width="163" height="53" viewBox="0 0 163 53" fill="none" xmlns="http://www.w3.org/2000/svg">
<rect x="0.547852" y="0.462433" width="161.586" height="52.1387" rx="20" fill="#FF5722"/>
<path d="M61.3334 35.8381V28.5421H56.5334V35.8381H53.2454V19.2421H56.5334V25.8421H61.3334V19.2421H64.6214V35.8381H61.3334ZM74.932 21.8221V35.8381H71.656V21.8221H66.808V19.2421H79.924L79.588 21.8221H74.932ZM93.4506 19.2421L94.3866 35.8381H91.4586L91.1466 28.1941C91.1226 27.5541 91.1066 26.9621 91.0986 26.4181C91.0986 25.8661 91.1026 25.3461 91.1106 24.8581C91.1186 24.3621 91.1306 23.8861 91.1466 23.4301C91.1706 22.9741 91.1986 22.5261 91.2306 22.0861L89.0346 32.9581H86.3706L84.0186 22.0861C84.0506 22.5101 84.0786 22.9541 84.1026 23.4181C84.1266 23.8821 84.1426 24.3661 84.1506 24.8701C84.1666 25.3741 84.1746 25.9061 84.1746 26.4661C84.1826 27.0261 84.1746 27.6101 84.1506 28.2181L83.9226 35.8381H81.0426L81.9786 19.2421H85.6266L87.7626 30.1981L89.8026 19.2421H93.4506ZM97.4973 35.8381V19.2421H100.785V33.1741H108.105L107.757 35.8381H97.4973Z" fill="white"/>
</svg>
