<svg width="163" height="53" viewBox="0 0 163 53" fill="none"
    xmlns="http://www.w3.org/2000/svg">
    <rect x="0.547852" y="0.462433" width="161.586" height="52.1387" rx="20" fill="#f5272d"/>
    <path d="M64.1294 19.2421V30.0301C64.1294 30.8941 64.0014 31.7021 63.7454 32.4541C63.4894 33.2061 63.0974 33.8581 62.5694 34.4101C62.0494 34.9621 61.3934 35.3941 60.6014 35.7061C59.8094 36.0181 58.8774 36.1741 57.8054 36.1741C56.8294 36.1741 55.9494 36.0381 55.1654 35.7661C54.3894 35.4941 53.6534 35.1141 52.9574 34.6261L54.2534 32.5741C54.8694 32.9821 55.4414 33.2661 55.9694 33.4261C56.5054 33.5781 57.0614 33.6541 57.6374 33.6541C58.5974 33.6541 59.3734 33.3501 59.9654 32.7421C60.5574 32.1261 60.8534 31.2181 60.8534 30.0181V21.7141H55.8134V19.2421H64.1294ZM78.196 32.4901C78.196 32.9781 78.268 33.3341 78.412 33.5581C78.556 33.7741 78.788 33.9381 79.108 34.0501L78.424 36.1741C77.744 36.1021 77.164 35.9341 76.684 35.6701C76.212 35.3981 75.848 34.9941 75.592 34.4581C75.112 35.0421 74.504 35.4781 73.768 35.7661C73.04 36.0541 72.276 36.1981 71.476 36.1981C70.18 36.1981 69.152 35.8301 68.392 35.0941C67.632 34.3581 67.252 33.4021 67.252 32.2261C67.252 30.8741 67.78 29.8341 68.836 29.1061C69.9 28.3701 71.404 28.0021 73.348 28.0021H75.124V27.3181C75.124 26.5661 74.892 26.0221 74.428 25.6861C73.964 25.3421 73.296 25.1701 72.424 25.1701C72.016 25.1701 71.504 25.2261 70.888 25.3381C70.28 25.4421 69.652 25.6061 69.004 25.8301L68.248 23.6581C69.056 23.3541 69.868 23.1301 70.684 22.9861C71.508 22.8421 72.256 22.7701 72.928 22.7701C74.712 22.7701 76.036 23.1501 76.9 23.9101C77.764 24.6621 78.196 25.7301 78.196 27.1141V32.4901ZM72.508 33.9061C72.988 33.9061 73.472 33.7701 73.96 33.4981C74.456 33.2261 74.844 32.8461 75.124 32.3581V29.8861H73.876C72.7 29.8861 71.848 30.0741 71.32 30.4501C70.8 30.8261 70.54 31.3581 70.54 32.0461C70.54 32.6381 70.708 33.0981 71.044 33.4261C71.38 33.7461 71.868 33.9061 72.508 33.9061ZM93.9546 23.1301L89.5866 35.8381H85.8666L81.4746 23.1301H84.8826L87.7746 33.3061L90.7266 23.1301H93.9546ZM106.977 32.4901C106.977 32.9781 107.049 33.3341 107.193 33.5581C107.337 33.7741 107.569 33.9381 107.889 34.0501L107.205 36.1741C106.525 36.1021 105.945 35.9341 105.465 35.6701C104.993 35.3981 104.629 34.9941 104.373 34.4581C103.893 35.0421 103.285 35.4781 102.549 35.7661C101.821 36.0541 101.057 36.1981 100.257 36.1981C98.9613 36.1981 97.9333 35.8301 97.1733 35.0941C96.4133 34.3581 96.0333 33.4021 96.0333 32.2261C96.0333 30.8741 96.5613 29.8341 97.6173 29.1061C98.6813 28.3701 100.185 28.0021 102.129 28.0021H103.905V27.3181C103.905 26.5661 103.673 26.0221 103.209 25.6861C102.745 25.3421 102.077 25.1701 101.205 25.1701C100.797 25.1701 100.285 25.2261 99.6693 25.3381C99.0613 25.4421 98.4333 25.6061 97.7853 25.8301L97.0293 23.6581C97.8373 23.3541 98.6493 23.1301 99.4653 22.9861C100.289 22.8421 101.037 22.7701 101.709 22.7701C103.493 22.7701 104.817 23.1501 105.681 23.9101C106.545 24.6621 106.977 25.7301 106.977 27.1141V32.4901ZM101.289 33.9061C101.769 33.9061 102.253 33.7701 102.741 33.4981C103.237 33.2261 103.625 32.8461 103.905 32.3581V29.8861H102.657C101.481 29.8861 100.629 30.0741 100.101 30.4501C99.5813 30.8261 99.3213 31.3581 99.3213 32.0461C99.3213 32.6381 99.4893 33.0981 99.8253 33.4261C100.161 33.7461 100.649 33.9061 101.289 33.9061Z" fill="white"/>
</svg>
