<svg width="32" height="32" viewBox="0 0 32 32" fill="none" xmlns="http://www.w3.org/2000/svg">
<path d="M25.1666 29.3333C22.5889 29.3333 19.9611 28.7111 17.2833 27.4666C14.6055 26.2222 12.1222 24.4555 9.83329 22.1666C7.5444 19.8777 5.77774 17.3944 4.53329 14.7166C3.28885 12.0388 2.66663 9.41107 2.66663 6.83329C2.66663 6.40472 2.80948 6.04757 3.09519 5.76186C3.3809 5.47615 3.73805 5.33329 4.16663 5.33329H8.83329C9.1444 5.33329 9.41107 5.4444 9.63329 5.66663C9.85552 5.88885 10.0111 6.16663 10.1 6.49996L10.9976 10.688C11.0436 11.0071 11.0388 11.2944 10.9833 11.55C10.9277 11.8055 10.8085 12.0247 10.6257 12.2075L7.29996 15.5666C7.87774 16.5444 8.48885 17.4555 9.13329 18.3C9.77774 19.1444 10.4888 19.9444 11.2666 20.7C12.0888 21.5444 12.9555 22.3166 13.8666 23.0166C14.7777 23.7166 15.7333 24.3333 16.7333 24.8666L19.9 21.6C20.1222 21.3555 20.3794 21.1888 20.6717 21.1C20.9639 21.0111 21.2511 20.9888 21.5333 21.0333L25.5 21.9C25.8333 21.9888 26.1111 22.1671 26.3333 22.4348C26.5555 22.7024 26.6666 23.0019 26.6666 23.3333V27.8333C26.6666 28.2619 26.5238 28.619 26.2381 28.9047C25.9523 29.1904 25.5952 29.3333 25.1666 29.3333ZM6.29996 13.7333L8.99996 11L8.23329 7.33329H4.66663C4.71107 8.26663 4.86107 9.24996 5.11663 10.2833C5.37218 11.3166 5.76663 12.4666 6.29996 13.7333ZM18.6 25.8333C19.5111 26.2555 20.5 26.6 21.5666 26.8666C22.6333 27.1333 23.6666 27.2888 24.6666 27.3333V23.7666L21.2333 23.0666L18.6 25.8333ZM17.6666 4.66663C17.3833 4.66663 17.1458 4.57024 16.9541 4.37746C16.7625 4.18466 16.6666 3.94577 16.6666 3.66079C16.6666 3.37579 16.7625 3.13885 16.9541 2.94996C17.1458 2.76107 17.3833 2.66663 17.6666 2.66663H28.3333C28.6166 2.66663 28.8541 2.76301 29.0458 2.95579C29.2375 3.14859 29.3333 3.38748 29.3333 3.67246C29.3333 3.95746 29.2375 4.1944 29.0458 4.38329C28.8541 4.57218 28.6166 4.66663 28.3333 4.66663H17.6666ZM17.6666 9.33329C17.3833 9.33329 17.1458 9.2369 16.9541 9.04413C16.7625 8.85133 16.6666 8.61244 16.6666 8.32746C16.6666 8.04246 16.7625 7.80552 16.9541 7.61663C17.1458 7.42774 17.3833 7.33329 17.6666 7.33329H28.3333C28.6166 7.33329 28.8541 7.42968 29.0458 7.62246C29.2375 7.81526 29.3333 8.05415 29.3333 8.33913C29.3333 8.62413 29.2375 8.86107 29.0458 9.04996C28.8541 9.23885 28.6166 9.33329 28.3333 9.33329H17.6666ZM17.6666 14C17.3833 14 17.1458 13.9036 16.9541 13.7108C16.7625 13.518 16.6666 13.2791 16.6666 12.9941C16.6666 12.7091 16.7625 12.4722 16.9541 12.2833C17.1458 12.0944 17.3833 12 17.6666 12H28.3333C28.6166 12 28.8541 12.0963 29.0458 12.2891C29.2375 12.4819 29.3333 12.7208 29.3333 13.0058C29.3333 13.2908 29.2375 13.5277 29.0458 13.7166C28.8541 13.9055 28.6166 14 28.3333 14H17.6666Z" fill="#149ECA"/>
</svg>
