<svg width="162" height="53" viewBox="0 0 162 53" fill="none"
    xmlns="http://www.w3.org/2000/svg">
    <rect x="0.275635" y="0.416199" width="161.586" height="52.1387" rx="20" fill="#00d8ff"/>
    <path d="M57.7078 24.1039C57.7078 24.9039 57.5478 25.6039 57.2278 26.2039C56.9158 26.8039 56.4878 27.3079 55.9438 27.7159C55.4078 28.1239 54.8038 28.4399 54.1318 28.6639L58.6798 35.7919H54.9118L50.9878 29.1799H49.4758V35.7919H46.1998V19.1959H51.0838C53.2678 19.1959 54.9158 19.5999 56.0278 20.4079C57.1478 21.2159 57.7078 22.4479 57.7078 24.1039ZM54.2998 24.1039C54.2998 23.2079 54.0398 22.5639 53.5198 22.1719C52.9998 21.7719 52.2158 21.5719 51.1678 21.5719H49.4758V26.8519H51.2758C52.2438 26.8519 52.9878 26.6359 53.5078 26.2039C54.0358 25.7719 54.2998 25.0719 54.2998 24.1039ZM63.4584 30.4039C63.5224 31.1959 63.7024 31.8399 63.9984 32.3359C64.3024 32.8319 64.6904 33.1959 65.1624 33.4279C65.6344 33.6599 66.1584 33.7759 66.7344 33.7759C67.3424 33.7759 67.9144 33.6799 68.4504 33.4879C68.9864 33.2959 69.5144 33.0279 70.0344 32.6839L71.3544 34.4959C70.7624 34.9919 70.0544 35.3919 69.2304 35.6959C68.4144 35.9999 67.5144 36.1519 66.5304 36.1519C65.1544 36.1519 63.9944 35.8679 63.0504 35.2999C62.1144 34.7319 61.4064 33.9439 60.9264 32.9359C60.4464 31.9279 60.2064 30.7679 60.2064 29.4559C60.2064 28.1919 60.4424 27.0519 60.9144 26.0359C61.3864 25.0199 62.0664 24.2159 62.9544 23.6239C63.8424 23.0239 64.9144 22.7239 66.1704 22.7239C67.3384 22.7239 68.3464 22.9799 69.1944 23.4919C70.0424 24.0039 70.6984 24.7399 71.1624 25.6999C71.6264 26.6519 71.8584 27.7999 71.8584 29.1439C71.8584 29.3599 71.8504 29.5799 71.8344 29.8039C71.8264 30.0279 71.8144 30.2279 71.7984 30.4039H63.4584ZM66.1824 24.9559C65.4144 24.9559 64.7824 25.2319 64.2864 25.7839C63.7984 26.3279 63.5104 27.1919 63.4224 28.3759H68.7744C68.7584 27.3039 68.5344 26.4679 68.1024 25.8679C67.6784 25.2599 67.0384 24.9559 66.1824 24.9559ZM85.289 32.4439C85.289 32.9319 85.361 33.2879 85.505 33.5119C85.649 33.7279 85.881 33.8919 86.201 34.0039L85.517 36.1279C84.837 36.0559 84.257 35.8879 83.777 35.6239C83.305 35.3519 82.941 34.9479 82.685 34.4119C82.205 34.9959 81.597 35.4319 80.861 35.7199C80.133 36.0079 79.369 36.1519 78.569 36.1519C77.273 36.1519 76.245 35.7839 75.485 35.0479C74.725 34.3119 74.345 33.3559 74.345 32.1799C74.345 30.8279 74.873 29.7879 75.929 29.0599C76.993 28.3239 78.497 27.9559 80.441 27.9559H82.217V27.2719C82.217 26.5199 81.985 25.9759 81.521 25.6399C81.057 25.2959 80.389 25.1239 79.517 25.1239C79.109 25.1239 78.597 25.1799 77.981 25.2919C77.373 25.3959 76.745 25.5599 76.097 25.7839L75.341 23.6119C76.149 23.3079 76.961 23.0839 77.777 22.9399C78.601 22.7959 79.349 22.7239 80.021 22.7239C81.805 22.7239 83.129 23.1039 83.993 23.8639C84.857 24.6159 85.289 25.6839 85.289 27.0679V32.4439ZM79.601 33.8599C80.081 33.8599 80.565 33.7239 81.053 33.4519C81.549 33.1799 81.937 32.7999 82.217 32.3119V29.8399H80.969C79.793 29.8399 78.941 30.0279 78.413 30.4039C77.893 30.7799 77.633 31.3119 77.633 31.9999C77.633 32.5919 77.801 33.0519 78.137 33.3799C78.473 33.6999 78.961 33.8599 79.601 33.8599ZM95.9357 33.6079C96.4957 33.6079 97.0197 33.5039 97.5077 33.2959C98.0037 33.0879 98.4797 32.8239 98.9357 32.5039L100.376 34.5319C99.8157 35.0039 99.1397 35.3919 98.3477 35.6959C97.5557 35.9999 96.7077 36.1519 95.8037 36.1519C94.4757 36.1519 93.3357 35.8759 92.3837 35.3239C91.4397 34.7639 90.7117 33.9879 90.1997 32.9959C89.6957 31.9959 89.4437 30.8359 89.4437 29.5159C89.4437 28.2119 89.6997 27.0479 90.2117 26.0239C90.7317 24.9919 91.4677 24.1839 92.4197 23.5999C93.3797 23.0159 94.5237 22.7239 95.8517 22.7239C96.7637 22.7239 97.5877 22.8559 98.3237 23.1199C99.0677 23.3759 99.7477 23.7599 100.364 24.2719L98.9597 26.2159C98.4877 25.8879 97.9997 25.6399 97.4957 25.4719C96.9997 25.2959 96.4837 25.2079 95.9477 25.2079C95.0117 25.2079 94.2477 25.5479 93.6557 26.2279C93.0717 26.8999 92.7797 27.9959 92.7797 29.5159C92.7797 30.5159 92.9157 31.3159 93.1877 31.9159C93.4677 32.5159 93.8437 32.9479 94.3157 33.2119C94.7957 33.4759 95.3357 33.6079 95.9357 33.6079ZM114.898 35.0839C114.426 35.3959 113.854 35.6519 113.182 35.8519C112.51 36.0519 111.782 36.1519 110.998 36.1519C109.446 36.1519 108.278 35.7519 107.494 34.9519C106.71 34.1439 106.318 33.0719 106.318 31.7359V25.3279H103.558V23.0839H106.318V20.2879L109.486 19.9039V23.0839H113.686L113.362 25.3279H109.486V31.7239C109.486 32.3799 109.646 32.8599 109.966 33.1639C110.286 33.4679 110.802 33.6199 111.514 33.6199C111.97 33.6199 112.386 33.5679 112.762 33.4639C113.146 33.3519 113.494 33.2119 113.806 33.0439L114.898 35.0839Z" fill="black"/>
</svg>
