<svg width="163" height="53" viewBox="0 0 163 53" fill="none" xmlns="http://www.w3.org/2000/svg">
<rect x="0.544189" y="0.416199" width="161.586" height="52.1387" rx="20" fill="#3178c6"/>
<path d="M18.385 21.7759V35.7919H15.109V21.7759H10.261V19.1959H23.377L23.041 21.7759H18.385Z" fill="white"/>
<path d="M37.4076 23.0839L33.0996 35.8159C32.7476 36.8559 32.2916 37.7479 31.7316 38.4919C31.1716 39.2359 30.4636 39.8239 29.6076 40.2559C28.7596 40.6959 27.7196 40.9559 26.4876 41.0359L26.0916 38.7439C26.9476 38.6239 27.6316 38.4439 28.1436 38.2039C28.6556 37.9639 29.0636 37.6479 29.3676 37.2559C29.6796 36.8639 29.9476 36.3759 30.1716 35.7919H29.0916L24.9276 23.0839H28.2756L31.1556 33.6799L34.1556 23.0839H37.4076Z" fill="white"/>
<path d="M46.8542 22.7239C47.9742 22.7239 48.8702 22.9999 49.5422 23.5519C50.2222 24.0959 50.7142 24.8679 51.0182 25.8679C51.3302 26.8679 51.4862 28.0479 51.4862 29.4079C51.4862 30.7119 51.2982 31.8719 50.9222 32.8879C50.5462 33.9039 49.9942 34.7039 49.2662 35.2879C48.5462 35.8639 47.6582 36.1519 46.6022 36.1519C45.3062 36.1519 44.2582 35.6919 43.4582 34.7719V40.6879L40.2902 41.0239V23.0839H43.0742L43.2422 24.6319C43.7462 23.9759 44.3102 23.4959 44.9342 23.1919C45.5582 22.8799 46.1982 22.7239 46.8542 22.7239ZM45.9302 25.0999C45.3942 25.0999 44.9222 25.2599 44.5142 25.5799C44.1142 25.8999 43.7622 26.2959 43.4582 26.7679V32.4559C43.7462 32.8879 44.0742 33.2119 44.4422 33.4279C44.8102 33.6439 45.2262 33.7519 45.6902 33.7519C46.4982 33.7519 47.1142 33.4159 47.5382 32.7439C47.9702 32.0639 48.1862 30.9639 48.1862 29.4439C48.1862 28.3719 48.0982 27.5199 47.9222 26.8879C47.7542 26.2479 47.5022 25.7919 47.1662 25.5199C46.8302 25.2399 46.4182 25.0999 45.9302 25.0999Z" fill="white"/>
<path d="M57.3809 30.4039C57.4449 31.1959 57.6249 31.8399 57.9209 32.3359C58.2249 32.8319 58.6129 33.1959 59.0849 33.4279C59.5569 33.6599 60.0809 33.7759 60.6569 33.7759C61.2649 33.7759 61.8369 33.6799 62.3729 33.4879C62.9089 33.2959 63.4369 33.0279 63.9569 32.6839L65.2769 34.4959C64.6849 34.9919 63.9769 35.3919 63.1529 35.6959C62.3369 35.9999 61.4369 36.1519 60.4529 36.1519C59.0769 36.1519 57.9169 35.8679 56.9729 35.2999C56.0369 34.7319 55.3289 33.9439 54.8489 32.9359C54.3689 31.9279 54.1289 30.7679 54.1289 29.4559C54.1289 28.1919 54.3649 27.0519 54.8369 26.0359C55.3089 25.0199 55.9889 24.2159 56.8769 23.6239C57.7649 23.0239 58.8369 22.7239 60.0929 22.7239C61.2609 22.7239 62.2689 22.9799 63.1169 23.4919C63.9649 24.0039 64.6209 24.7399 65.0849 25.6999C65.5489 26.6519 65.7809 27.7999 65.7809 29.1439C65.7809 29.3599 65.7729 29.5799 65.7569 29.8039C65.7489 30.0279 65.7369 30.2279 65.7209 30.4039H57.3809ZM60.1049 24.9559C59.3369 24.9559 58.7049 25.2319 58.2089 25.7839C57.7209 26.3279 57.4329 27.1919 57.3449 28.3759H62.6969C62.6809 27.3039 62.4569 26.4679 62.0249 25.8679C61.6009 25.2599 60.9609 24.9559 60.1049 24.9559Z" fill="white"/>
<path d="M80.5075 31.0279C80.5075 32.0359 80.2475 32.9239 79.7275 33.6919C79.2155 34.4599 78.4755 35.0639 77.5075 35.5039C76.5395 35.9359 75.3675 36.1519 73.9915 36.1519C72.5515 36.1519 71.3155 35.9399 70.2835 35.5159C69.2515 35.0839 68.3875 34.5319 67.6915 33.8599L69.4195 31.9279C70.0195 32.4639 70.6915 32.8839 71.4355 33.1879C72.1795 33.4919 73.0155 33.6439 73.9435 33.6439C74.5355 33.6439 75.0675 33.5519 75.5395 33.3679C76.0195 33.1839 76.3955 32.9159 76.6675 32.5639C76.9475 32.2039 77.0875 31.7639 77.0875 31.2439C77.0875 30.7879 76.9915 30.4039 76.7995 30.0919C76.6075 29.7799 76.2755 29.4999 75.8035 29.2519C75.3395 29.0039 74.6915 28.7559 73.8595 28.5079C72.6355 28.1319 71.6275 27.7199 70.8355 27.2719C70.0435 26.8159 69.4555 26.2799 69.0715 25.6639C68.6875 25.0399 68.4955 24.3039 68.4955 23.4559C68.4955 22.5039 68.7595 21.6839 69.2875 20.9959C69.8155 20.2999 70.5275 19.7679 71.4235 19.3999C72.3275 19.0239 73.3355 18.8359 74.4475 18.8359C75.6795 18.8359 76.7635 19.0159 77.6995 19.3759C78.6355 19.7279 79.4595 20.2319 80.1715 20.8879L78.5275 22.7479C77.9595 22.2599 77.3435 21.8999 76.6795 21.6679C76.0235 21.4359 75.3555 21.3199 74.6755 21.3199C74.1395 21.3199 73.6595 21.3919 73.2355 21.5359C72.8195 21.6799 72.4915 21.8919 72.2515 22.1719C72.0115 22.4519 71.8915 22.8079 71.8915 23.2399C71.8915 23.6319 71.9995 23.9679 72.2155 24.2479C72.4395 24.5199 72.8195 24.7759 73.3555 25.0159C73.8915 25.2479 74.6275 25.5119 75.5635 25.8079C76.5475 26.1039 77.4075 26.4599 78.1435 26.8759C78.8875 27.2919 79.4675 27.8319 79.8835 28.4959C80.2995 29.1519 80.5075 29.9959 80.5075 31.0279Z" fill="white"/>
<path d="M89.8581 33.6079C90.4181 33.6079 90.9421 33.5039 91.4301 33.2959C91.9261 33.0879 92.4021 32.8239 92.8581 32.5039L94.2981 34.5319C93.7381 35.0039 93.0621 35.3919 92.2701 35.6959C91.4781 35.9999 90.6301 36.1519 89.7261 36.1519C88.3981 36.1519 87.2581 35.8759 86.3061 35.3239C85.3621 34.7639 84.6341 33.9879 84.1221 32.9959C83.6181 31.9959 83.3661 30.8359 83.3661 29.5159C83.3661 28.2119 83.6221 27.0479 84.1341 26.0239C84.6541 24.9919 85.3901 24.1839 86.3421 23.5999C87.3021 23.0159 88.4461 22.7239 89.7741 22.7239C90.6861 22.7239 91.5101 22.8559 92.2461 23.1199C92.9901 23.3759 93.6701 23.7599 94.2861 24.2719L92.8821 26.2159C92.4101 25.8879 91.9221 25.6399 91.4181 25.4719C90.9221 25.2959 90.4061 25.2079 89.8701 25.2079C88.9341 25.2079 88.1701 25.5479 87.5781 26.2279C86.9941 26.8999 86.7021 27.9959 86.7021 29.5159C86.7021 30.5159 86.8381 31.3159 87.1101 31.9159C87.3901 32.5159 87.7661 32.9479 88.2381 33.2119C88.7181 33.4759 89.2581 33.6079 89.8581 33.6079Z" fill="white"/>
<path d="M97.9727 35.7919V33.5959H99.7607V25.2679H97.9727V23.0839H102.173L102.761 25.9999C103.225 24.9199 103.809 24.1079 104.513 23.5639C105.217 23.0119 106.101 22.7359 107.165 22.7359C107.573 22.7359 107.933 22.7679 108.245 22.8319C108.565 22.8959 108.869 22.9799 109.157 23.0839L108.209 25.7479C107.961 25.6839 107.725 25.6359 107.501 25.6039C107.277 25.5639 107.025 25.5439 106.745 25.5439C105.865 25.5439 105.097 25.8879 104.441 26.5759C103.793 27.2559 103.289 28.1799 102.929 29.3479V33.5959H105.461V35.7919H97.9727ZM106.481 28.0399V24.6679L106.913 23.0839H109.157L108.593 28.0399H106.481Z" fill="white"/>
<path d="M119.551 23.0839V33.5479H122.899V35.7919H112.663V33.5479H116.383V25.3279H112.783V23.0839H119.551ZM117.499 16.6759C118.083 16.6759 118.555 16.8559 118.915 17.2159C119.283 17.5759 119.467 18.0239 119.467 18.5599C119.467 19.0959 119.283 19.5479 118.915 19.9159C118.555 20.2759 118.083 20.4559 117.499 20.4559C116.915 20.4559 116.439 20.2759 116.071 19.9159C115.703 19.5479 115.519 19.0959 115.519 18.5599C115.519 18.0239 115.703 17.5759 116.071 17.2159C116.439 16.8559 116.915 16.6759 117.499 16.6759Z" fill="white"/>
<path d="M133.198 22.7239C134.318 22.7239 135.214 22.9999 135.886 23.5519C136.566 24.0959 137.058 24.8679 137.362 25.8679C137.674 26.8679 137.83 28.0479 137.83 29.4079C137.83 30.7119 137.642 31.8719 137.266 32.8879C136.89 33.9039 136.338 34.7039 135.61 35.2879C134.89 35.8639 134.002 36.1519 132.946 36.1519C131.65 36.1519 130.602 35.6919 129.802 34.7719V40.6879L126.634 41.0239V23.0839H129.418L129.586 24.6319C130.09 23.9759 130.654 23.4959 131.278 23.1919C131.902 22.8799 132.542 22.7239 133.198 22.7239ZM132.274 25.0999C131.738 25.0999 131.266 25.2599 130.858 25.5799C130.458 25.8999 130.106 26.2959 129.802 26.7679V32.4559C130.09 32.8879 130.418 33.2119 130.786 33.4279C131.154 33.6439 131.57 33.7519 132.034 33.7519C132.842 33.7519 133.458 33.4159 133.882 32.7439C134.314 32.0639 134.53 30.9639 134.53 29.4439C134.53 28.3719 134.442 27.5199 134.266 26.8879C134.098 26.2479 133.846 25.7919 133.51 25.5199C133.174 25.2399 132.762 25.0999 132.274 25.0999Z" fill="white"/>
<path d="M151.993 35.0839C151.521 35.3959 150.949 35.6519 150.277 35.8519C149.605 36.0519 148.877 36.1519 148.093 36.1519C146.541 36.1519 145.373 35.7519 144.589 34.9519C143.805 34.1439 143.413 33.0719 143.413 31.7359V25.3279H140.653V23.0839H143.413V20.2879L146.581 19.9039V23.0839H150.781L150.457 25.3279H146.581V31.7239C146.581 32.3799 146.741 32.8599 147.061 33.1639C147.381 33.4679 147.897 33.6199 148.609 33.6199C149.065 33.6199 149.481 33.5679 149.857 33.4639C150.241 33.3519 150.589 33.2119 150.901 33.0439L151.993 35.0839Z" fill="white"/>
</svg>
