<svg width="173" height="47" viewBox="0 0 173 47" fill="none" xmlns="http://www.w3.org/2000/svg">
<path d="M29.944 2.73603L26.056 36H17.872L15.448 12.216L12.784 36H4.45596L0.855957 2.73603H8.22396L9.35196 29.28L12.112 6.57603H18.88L21.448 29.28L23.104 2.73603H29.944Z" fill="white"/>
<path d="M39.7172 25.464C39.8932 26.856 40.2532 27.984 40.7972 28.848C41.3572 29.696 42.0692 30.32 42.9332 30.72C43.7972 31.104 44.7652 31.296 45.8372 31.296C47.0052 31.296 48.1332 31.104 49.2212 30.72C50.3092 30.336 51.3572 29.824 52.3652 29.184L55.4132 33.312C54.2132 34.336 52.7572 35.176 51.0452 35.832C49.3492 36.488 47.4132 36.816 45.2372 36.816C42.3252 36.816 39.8852 36.24 37.9172 35.088C35.9492 33.92 34.4692 32.32 33.4772 30.288C32.4852 28.256 31.9892 25.92 31.9892 23.28C31.9892 20.768 32.4692 18.488 33.4292 16.44C34.3892 14.376 35.7892 12.736 37.6292 11.52C39.4852 10.288 41.7492 9.67204 44.4212 9.67204C46.8532 9.67204 48.9572 10.192 50.7332 11.232C52.5252 12.272 53.9092 13.768 54.8852 15.72C55.8772 17.672 56.3732 20.016 56.3732 22.752C56.3732 23.184 56.3572 23.648 56.3252 24.144C56.3092 24.64 56.2772 25.08 56.2292 25.464H39.7172ZM44.4212 14.76C43.0612 14.76 41.9652 15.248 41.1332 16.224C40.3012 17.2 39.7972 18.76 39.6212 20.904H48.9812C48.9652 19.048 48.6052 17.56 47.9012 16.44C47.1972 15.32 46.0372 14.76 44.4212 14.76Z" fill="white"/>
<path d="M72.1465 31.392C73.4105 31.392 74.4265 31.192 75.1945 30.792C75.9785 30.392 76.3705 29.792 76.3705 28.992C76.3705 28.448 76.2185 27.992 75.9145 27.624C75.6105 27.256 75.0265 26.904 74.1625 26.568C73.2985 26.232 72.0185 25.832 70.3225 25.368C68.7705 24.952 67.3945 24.424 66.1945 23.784C65.0105 23.144 64.0825 22.32 63.4105 21.312C62.7545 20.304 62.4265 19.048 62.4265 17.544C62.4265 16.024 62.8505 14.672 63.6985 13.488C64.5465 12.304 65.7945 11.376 67.4425 10.704C69.0905 10.016 71.1065 9.67204 73.4905 9.67204C75.7625 9.67204 77.7385 9.96803 79.4185 10.56C81.1145 11.136 82.5785 11.872 83.8105 12.768L80.7865 17.232C79.7305 16.576 78.5945 16.056 77.3785 15.672C76.1625 15.272 74.9385 15.072 73.7065 15.072C72.4745 15.072 71.5545 15.24 70.9465 15.576C70.3545 15.896 70.0585 16.384 70.0585 17.04C70.0585 17.472 70.2105 17.848 70.5145 18.168C70.8345 18.472 71.4265 18.792 72.2905 19.128C73.1545 19.448 74.4185 19.848 76.0825 20.328C77.7305 20.792 79.1625 21.328 80.3785 21.936C81.6105 22.544 82.5625 23.36 83.2345 24.384C83.9065 25.392 84.2425 26.728 84.2425 28.392C84.2425 30.248 83.6905 31.808 82.5865 33.072C81.4825 34.32 80.0185 35.256 78.1945 35.88C76.3705 36.504 74.3705 36.816 72.1945 36.816C69.7305 36.816 67.5545 36.464 65.6665 35.76C63.7785 35.056 62.1705 34.128 60.8425 32.976L64.6585 28.704C65.6505 29.472 66.7705 30.112 68.0185 30.624C69.2825 31.136 70.6585 31.392 72.1465 31.392Z" fill="white"/>
<path d="M104 0.384033V27.984C104 29.008 104.288 29.744 104.864 30.192C105.456 30.624 106.264 30.84 107.288 30.84C107.944 30.84 108.576 30.768 109.184 30.624C109.792 30.464 110.36 30.28 110.888 30.072L112.712 35.136C111.848 35.584 110.808 35.976 109.592 36.312C108.376 36.648 106.96 36.816 105.344 36.816C102.272 36.816 100.016 35.936 98.5757 34.176C97.1357 32.4 96.4157 30.024 96.4157 27.048V5.56804H88.9037V0.384033H104Z" fill="white"/>
<path d="M126.061 25.464C126.237 26.856 126.597 27.984 127.141 28.848C127.701 29.696 128.413 30.32 129.277 30.72C130.141 31.104 131.109 31.296 132.181 31.296C133.349 31.296 134.477 31.104 135.565 30.72C136.653 30.336 137.701 29.824 138.709 29.184L141.757 33.312C140.557 34.336 139.101 35.176 137.389 35.832C135.693 36.488 133.757 36.816 131.581 36.816C128.669 36.816 126.229 36.24 124.261 35.088C122.293 33.92 120.813 32.32 119.821 30.288C118.829 28.256 118.333 25.92 118.333 23.28C118.333 20.768 118.813 18.488 119.773 16.44C120.733 14.376 122.133 12.736 123.973 11.52C125.829 10.288 128.093 9.67204 130.765 9.67204C133.197 9.67204 135.301 10.192 137.077 11.232C138.869 12.272 140.253 13.768 141.229 15.72C142.221 17.672 142.717 20.016 142.717 22.752C142.717 23.184 142.701 23.648 142.669 24.144C142.653 24.64 142.621 25.08 142.573 25.464H126.061ZM130.765 14.76C129.405 14.76 128.309 15.248 127.477 16.224C126.645 17.2 126.141 18.76 125.965 20.904H135.325C135.309 19.048 134.949 17.56 134.245 16.44C133.541 15.32 132.381 14.76 130.765 14.76Z" fill="white"/>
<path d="M172.362 10.512L163.866 36C163.114 38.256 162.114 40.144 160.866 41.664C159.634 43.2 158.09 44.384 156.234 45.216C154.394 46.048 152.178 46.536 149.586 46.68L148.722 41.328C150.402 41.12 151.754 40.808 152.778 40.392C153.818 39.976 154.65 39.408 155.274 38.688C155.914 37.984 156.466 37.088 156.93 36H154.338L146.25 10.512H154.266L159.21 31.152L164.586 10.512H172.362Z" fill="white"/>
</svg>
